# xmcd
#
# Track frame offsets:
# 150
# 25146
# 46309
# 58529
# 78190
# 93820
# 113707
# 125848
# 139702
# 161194
# 186015
#
# Disc length: 2630 seconds
#
#
# Revision: 0
# Processed by: cddbd v1.5.1PL0 Copyright (c) Steve Scherf et al.
# Submitted via: FreeRIP 2.93 
#
DISCID=8a0a440b
DTITLE=M.U.K.A. (Most United Knowledable Artists) - the Voice of soul
DYEAR=1900
DGENRE=National Folk
TTITLE0=Vuma (A Praise song forShaka the great Zulu King)
TTITLE1=Uthukela (A dedication to a life-serving river)
TTITLE2=Ofil'ofil (War song to ulift and boost spirit)
TTITLE3=Ungala Kanjani (How can you divorce me if you are so beautiful?)
TTITLE4=Zonk' intombi (Women are the special flowers of the world and they deserve respect)
TTITLE5=Insizw'enenkani (The sky is the limit for the MUKA)
TTITLE6=Zonk'indanawu (a gratitude song to all who have supported us all around the globe)
TTITLE7=Ma Ungalaleli (Life can be friutful if you are repectful and obedient)
TTITLE8=Swansea Bon-y-Mix (instrumental)
TTITLE9=Vuma (instrumental)
TTITLE10=Ngijabula Nigfe (a song appreciate your loved ones)
EXTD=
EXTT0=
EXTT1=
EXTT2=
EXTT3=
EXTT4=
EXTT5=
EXTT6=
EXTT7=
EXTT8=
EXTT9=
EXTT10=
PLAYORDER=
